# xmcd
#
# Track frame offsets: 
#        150
#        19462
#        41550
#
# Disc length: 751 seconds
#
# Revision: 1
# Processed by: cddbd v1.5.2PL0 Copyright (c) Steve Scherf et al.
# Submitted via: ExactAudioCopy v1.3
#
DISCID=2002ed03
DTITLE=New Sodmy - Jealousy
DYEAR=2001
DGENRE=visual kei
TTITLE0=Romantic Season
TTITLE1=Refrain
TTITLE2=squall
EXTD=YEAR: 2001
EXTT0=
EXTT1=
EXTT2=
PLAYORDER=
